<?xml version="1.0" standalone="no"?>
<!DOCTYPE svg PUBLIC "-//W3C//DTD SVG 20010904//EN"
 "http://www.w3.org/TR/2001/REC-SVG-20010904/DTD/svg10.dtd">
<svg version="1.0" xmlns="http://www.w3.org/2000/svg"
 width="64.000000pt" height="64.000000pt" viewBox="0 0 64.000000 64.000000"
 preserveAspectRatio="xMidYMid meet">

<g transform="translate(0.000000,64.000000) scale(0.100000,-0.100000)"
fill="#000000" stroke="none">
<path d="M182 558 c2 -13 8 -23 13 -23 6 0 11 10 13 23 2 15 -2 22 -13 22 -11
0 -15 -7 -13 -22z"/>
<path d="M270 556 c-13 -35 -13 -36 4 -36 17 0 29 41 16 54 -6 6 -13 -1 -20
-18z"/>
<path d="M352 517 c-22 -23 -29 -47 -14 -47 10 0 62 53 62 63 0 15 -28 6 -48
-16z"/>
<path d="M106 467 c-71 -40 -100 -142 -62 -216 12 -23 15 -40 8 -64 -22 -82
46 -148 122 -118 37 15 40 15 93 0 34 -10 52 -10 92 0 36 9 55 10 70 2 49 -27
131 -1 166 53 51 77 -10 196 -100 196 -16 0 -43 14 -68 35 -22 19 -46 35 -53
35 -7 0 -31 18 -53 40 -21 22 -51 44 -66 50 -44 17 -107 11 -149 -13z m137
-11 c18 -7 40 -22 50 -33 17 -20 17 -21 -14 -27 -55 -11 -97 -44 -121 -96 -35
-77 -90 -78 -104 -3 -21 111 88 202 189 159z m108 -86 c19 -5 48 -23 64 -40
20 -21 38 -30 60 -30 77 0 134 -81 106 -149 -20 -46 -54 -64 -110 -57 -57 8
-82 8 -147 0 -38 -4 -60 -1 -83 11 -28 14 -34 14 -53 0 -52 -36 -118 -7 -118
52 0 30 34 63 65 63 26 0 29 4 39 52 9 39 45 77 91 93 49 17 43 17 86 5z"/>
</g>
</svg>
